<svg width="97" height="41" viewBox="0 0 97 41" fill="none" xmlns="http://www.w3.org/2000/svg">
<g clip-path="url(#clip0_3607_1093)">
<path d="M30.1645 15.3278C30.1494 13.1116 29.4266 10.958 28.1011 9.18C28.0834 9.14302 28.0587 9.10982 28.0283 9.0822C27.1425 7.90025 26.0657 6.8737 24.8422 6.04464C24.8102 6.01913 24.7765 5.99579 24.7414 5.97478C22.8449 4.71406 20.7079 3.85785 18.4644 3.45978H18.4364C18.4218 3.45559 18.4062 3.45559 18.3916 3.45978C17.8316 3.35359 17.2297 3.27814 16.6362 3.22784C16.5914 1.9927 16.3366 1.22982 16.037 0.754764C15.9454 0.579214 15.8186 0.424362 15.6645 0.299845C15.5104 0.175329 15.3322 0.0838157 15.1411 0.0310059H15.0655H15.0151C14.8237 0.0839343 14.6452 0.175468 14.4906 0.299952C14.336 0.424435 14.2087 0.579225 14.1164 0.754764C13.814 1.22982 13.5564 1.9955 13.5172 3.23064C7.69656 3.72246 2.8502 6.89973 0.918379 11.1976C0.907368 11.2202 0.898009 11.2435 0.89038 11.2674C0.319077 12.5511 0.023428 13.9399 0.0224609 15.3445C0.0224609 18.6727 1.64351 21.7717 4.59164 24.0827C4.38959 25.3832 4.51564 26.7134 4.95841 27.953C4.26407 30.1886 3.64813 33.0417 4.81842 35.4673C4.81893 35.4747 4.81893 35.4822 4.81842 35.4896C6.1679 38.2561 8.81086 39.005 11.367 39.726C12.5838 40.021 13.7683 40.4357 14.9031 40.9639L14.9423 40.9807H14.9675C14.9936 40.9834 15.0198 40.9834 15.0459 40.9807H15.0879C15.1387 40.9813 15.1889 40.9687 15.2335 40.9444C16.3686 40.4102 17.554 39.9899 18.7724 39.6897C20.2282 39.2789 21.7149 38.8513 22.972 38.0605L23.0084 38.0354C24.0078 37.4096 24.8095 36.5145 25.321 35.4533C26.5053 33.0249 25.8809 30.2081 25.2258 28.0257C25.2211 28.0104 25.2135 27.9962 25.2034 27.9838C25.8697 26.3686 25.6849 24.6305 25.5981 24.0492C28.5435 21.7494 30.1645 18.6559 30.1645 15.3278ZM29.5346 15.3278C29.534 16.2319 29.4048 17.1313 29.151 17.9992C28.7034 17.0883 28.1274 16.246 27.4404 15.4982C26.1665 14.101 23.9127 12.3768 20.2562 11.7006C22.655 10.7863 25.1356 10.1023 27.6643 9.65785C28.8645 11.3071 29.5184 13.2894 29.5346 15.3278ZM27.2472 9.09617C23.9605 9.68673 20.762 10.6905 17.7281 12.0834C17.5321 10.499 16.8265 9.25265 15.8914 8.79716C15.9222 8.68538 15.9474 8.57919 15.9726 8.473C18.7543 7.54031 21.6285 6.90886 24.5454 6.58955C25.5624 7.29067 26.4724 8.13495 27.2472 9.09617ZM23.5823 29.2664L23.4143 29.4145C22.8146 29.8829 22.109 30.1976 21.3593 30.3311H21.3229H21.2641H21.2473C19.6823 30.6105 17.6553 30.401 15.1887 29.6772H15.1551H15.0319H15.0067C13.8832 30.0199 12.7304 30.2584 11.563 30.3898H11.5126C9.32602 30.6022 7.67977 30.2165 6.59626 29.2273C5.33918 28.1319 5.104 26.4133 5.104 25.2508C5.63634 26.2512 6.43079 27.0886 7.40259 27.6736C9.01245 28.6237 11.0423 28.7914 13.4416 28.2073C13.5967 28.5047 13.8308 28.7537 14.1182 28.9272C14.4056 29.1007 14.7352 29.1919 15.0711 29.191C15.4066 29.1921 15.7359 29.1008 16.0229 28.9273C16.3099 28.7538 16.5434 28.5047 16.6977 28.2073C19.0971 28.8025 21.1297 28.6237 22.7368 27.6736C23.7099 27.0902 24.5048 26.2524 25.0354 25.2508C25.0578 26.4133 24.8226 28.1319 23.5823 29.2664ZM22.1824 37.8258C21.0964 38.3616 19.9548 38.7767 18.778 39.0637C18.2412 38.5554 17.7801 37.9729 17.4089 37.334C16.8489 36.3308 17.1289 35.227 17.5461 34.1818C17.6161 34.003 17.7001 33.8102 17.7896 33.609C18.1312 32.8349 18.54 31.9016 18.4 31.0381C18.859 31.0934 19.3208 31.1223 19.7831 31.1247C20.2471 31.1263 20.7106 31.0908 21.1689 31.0185C21.3453 31.5159 21.0933 32.371 20.8666 33.1395C20.6738 33.6699 20.5579 34.2251 20.5222 34.7882C20.5215 35.3929 20.6732 35.988 20.9633 36.5188C21.2534 37.0496 21.6727 37.4991 22.1824 37.8258ZM15.0907 40.3408C14.6371 40.0055 13.0665 38.7116 12.7641 36.5962C12.4841 34.6737 13.3101 32.5834 15.1971 30.3786C16.0303 30.6166 16.8774 30.8033 17.7336 30.9375C17.9576 31.6473 17.5629 32.5443 17.2129 33.3407C17.1205 33.5531 17.0337 33.7543 16.9609 33.9415C16.499 35.1292 16.1658 36.3978 16.8601 37.6302C17.1996 38.2177 17.6106 38.7612 18.0836 39.2482C17.0541 39.5215 16.0514 39.8871 15.0879 40.3408H15.0907ZM22.4232 27.1426C20.917 28.0313 18.9627 28.1654 16.6278 27.545C16.5866 27.5315 16.5431 27.5266 16.4999 27.5306C16.4568 27.5347 16.415 27.5476 16.3771 27.5686C16.3392 27.5896 16.3061 27.6182 16.2798 27.6527C16.2536 27.6871 16.2348 27.7266 16.2246 27.7686C16.1419 28.0033 15.988 28.2063 15.7843 28.3496C15.5805 28.4928 15.3371 28.5691 15.0879 28.5678C14.8366 28.5697 14.5912 28.4924 14.3866 28.3469C14.182 28.2014 14.0286 27.9951 13.9484 27.7574C13.9377 27.717 13.9188 27.6793 13.8928 27.6466C13.8668 27.6139 13.8342 27.5869 13.7972 27.5674C13.7572 27.546 13.7132 27.5329 13.6679 27.5291C13.6227 27.5252 13.5771 27.5307 13.534 27.545C11.2046 28.1626 9.25882 28.0285 7.74976 27.1426C6.56807 26.4144 5.68475 25.2901 5.25799 23.971C5.51276 23.4568 6.76145 21.1206 9.56679 18.4044C9.86637 18.2312 13.674 16.1521 20.6146 18.4212C23.4003 21.1234 24.6714 23.4847 24.9206 23.9738C24.4883 25.2894 23.6024 26.4094 22.4204 27.1343L22.4232 27.1426ZM13.0273 12.9804C13.0273 11.3792 13.6124 9.97082 14.4076 9.45385C14.4941 9.39261 14.5882 9.34282 14.6875 9.30575C14.7864 9.26857 14.8901 9.24598 14.9955 9.23868H15.1131C15.2201 9.24117 15.326 9.26098 15.4267 9.29737C15.5253 9.33 15.6194 9.37508 15.7066 9.4315C16.415 9.87023 16.9637 11.0132 17.0897 12.374C17.1115 12.5754 17.1218 12.7779 17.1205 12.9804C17.1205 13.014 17.1205 13.0503 17.1205 13.0866C17.1157 13.6059 17.0442 14.1224 16.9077 14.6236C16.8482 14.8317 16.7762 15.036 16.6922 15.2355C16.3142 16.1326 15.7234 16.7222 15.0683 16.7222C14.4132 16.7222 13.8224 16.1354 13.4444 15.2383C13.354 15.0302 13.28 14.8153 13.2233 14.5956C13.0856 14.0684 13.0197 13.5252 13.0273 12.9804ZM13.6908 16.7362C12.7436 16.7788 11.8043 16.9288 10.8911 17.1833C11.493 16.6719 12.1678 16.1437 12.9125 15.6128C13.0999 16.0322 13.3638 16.4131 13.6908 16.7362ZM16.3758 16.8256C16.7472 16.4873 17.0421 16.0738 17.2409 15.6128C18.0808 16.2192 18.8591 16.8368 19.5535 17.4432C18.5115 17.1569 17.4492 16.9505 16.3758 16.8256ZM16.1154 7.75763C16.3609 6.64215 16.5238 5.51013 16.6026 4.37077C17.1625 4.26179 17.7365 4.15839 18.3272 4.06338C20.2199 4.40487 22.0365 5.08053 23.6915 6.05861C21.1184 6.38688 18.5819 6.95571 16.1154 7.75763ZM14.6007 1.12084C14.7041 0.918789 14.8647 0.751611 15.0627 0.640191C15.26 0.752519 15.4204 0.919457 15.5247 1.12084C15.7318 1.47014 15.9446 2.09051 15.9894 3.16078C15.9894 3.35639 15.9894 3.56597 15.9894 3.79232V3.85659C15.9894 4.06059 15.9726 4.27296 15.9586 4.5077C15.8571 5.68222 15.67 6.8478 15.3987 7.99516C15.3539 8.19915 15.3091 8.40594 15.2587 8.62111C15.1939 8.611 15.1283 8.60633 15.0627 8.60714C14.9859 8.60845 14.9093 8.61405 14.8331 8.6239C14.8023 8.49257 14.7687 8.36402 14.7407 8.23269C14.4832 7.142 14.2962 6.03591 14.1808 4.92127C14.1584 4.69772 14.1416 4.48534 14.1332 4.28414C14.1248 4.08294 14.1164 3.94881 14.1136 3.79232C14.1136 3.56597 14.1136 3.35639 14.1136 3.16357C14.1808 2.09051 14.3964 1.47014 14.6007 1.12084ZM13.5032 3.83703C13.5032 4.02985 13.5172 4.23384 13.5312 4.44342C7.78616 6.00272 4.23048 8.30534 2.42184 9.75286C4.63924 6.54205 8.72407 4.2562 13.5032 3.83703ZM1.44473 11.505C1.66591 11.2674 2.909 9.982 5.36437 8.51771C7.93777 7.01237 10.7027 5.86001 13.5844 5.09173C13.7126 6.22768 13.909 7.35493 14.1724 8.46742C11.0645 9.65609 8.19519 11.3909 5.70035 13.5896C3.18057 15.8699 1.89829 17.9937 1.38034 19.0164C0.877734 17.8265 0.624418 16.5465 0.635973 15.2552C0.647529 13.9639 0.923714 12.6886 1.44753 11.5078L1.44473 11.505ZM1.7247 19.7542C2.11667 18.8711 4.92482 13.1341 13.506 9.41473C12.8313 10.2028 12.4001 11.491 12.4001 12.9776C12.3935 13.6529 12.4879 14.3254 12.6801 14.9729C7.69656 18.4771 5.42597 22.2691 4.80163 23.4456C3.53002 22.4413 2.48129 21.1842 1.7219 19.7542H1.7247ZM5.36437 28.7578C5.58743 29.1148 5.85666 29.4408 6.1651 29.7275C6.68889 30.2003 7.30865 30.5549 7.98214 30.767C7.32306 30.9752 6.71734 31.3243 6.2071 31.7898C5.58377 32.3888 5.15053 33.1575 4.96121 34.0002C4.54405 32.2732 4.88842 30.3898 5.35038 28.7578H5.36437ZM5.42597 35.2661C5.60515 31.0409 9.56679 31.1052 9.74038 31.1108C9.76994 31.1118 9.79943 31.107 9.82717 31.0968C10.0371 31.0968 10.2527 31.1136 10.4711 31.0968C9.17203 32.1195 8.3853 33.3044 8.13333 34.6317C7.92892 35.8278 8.11028 37.0578 8.65128 38.1444C7.3074 37.5715 6.1539 36.7415 5.41197 35.2661H5.42597ZM9.58359 38.5104C9.35121 38.1555 8.4105 36.5795 8.76327 34.7547C9.04324 33.3379 10.0148 32.0888 11.6694 31.0409C12.5311 30.9484 13.3846 30.7914 14.2228 30.5714C12.5681 32.7036 11.8654 34.7631 12.1454 36.6857C12.3166 37.8029 12.7954 38.8506 13.5284 39.712C12.8705 39.4829 12.1986 39.2929 11.5378 39.1056C10.8771 38.9184 10.2023 38.7284 9.58359 38.5104ZM22.8068 37.4402C22.3114 37.1893 21.8954 36.8063 21.6048 36.3337C21.3142 35.8612 21.1604 35.3175 21.1605 34.7631C21.201 34.266 21.3074 33.7764 21.4769 33.3072C21.7345 32.4465 21.9949 31.5607 21.8017 30.8844C22.3215 30.7582 22.8197 30.5558 23.28 30.2836C23.28 32.6952 24.6098 33.7319 25.1642 34.0617C25.0696 34.4559 24.9336 34.839 24.7582 35.2046C24.3169 36.1121 23.639 36.8843 22.7956 37.4402H22.8068ZM25.2958 33.391C24.7498 32.9914 23.7867 31.9714 23.9323 29.8057L24.0219 29.7275C24.32 29.4545 24.5807 29.1435 24.7974 28.8025C25.1838 30.2165 25.5001 31.8373 25.2846 33.391H25.2958ZM25.3658 23.454C24.7526 22.2971 22.4904 18.519 17.4817 15.0008C17.6842 14.3466 17.7843 13.6651 17.7784 12.9804C17.7784 12.9134 17.7784 12.8435 17.7784 12.7792C18.218 12.5669 18.6716 12.3601 19.1391 12.1673C23.2184 12.6535 25.6457 14.4615 26.9644 15.9006C27.776 16.7675 28.417 17.779 28.8542 18.8823C28.1008 20.6811 26.8955 22.2557 25.3546 23.454H25.3658Z" fill="currentColor"/>
<path d="M10.899 22.3555C9.96666 22.3555 9.13232 22.7635 8.81875 23.3726C8.78145 23.4469 8.77493 23.5327 8.8006 23.6117C8.82628 23.6907 8.88209 23.7564 8.95595 23.7946C9.00036 23.8165 9.04919 23.828 9.09873 23.8281C9.15661 23.8283 9.21341 23.8124 9.26283 23.7823C9.31224 23.7523 9.35234 23.7091 9.3787 23.6577C9.58308 23.2609 10.2186 22.9814 10.899 22.9814C11.5793 22.9814 12.2149 23.2609 12.422 23.6577C12.4407 23.6944 12.4665 23.7272 12.4979 23.754C12.5292 23.7807 12.5656 23.8011 12.6049 23.8138C12.6442 23.8265 12.6856 23.8314 12.7268 23.8281C12.7679 23.8248 12.808 23.8134 12.8448 23.7946C12.9194 23.7564 12.9757 23.6902 13.0014 23.6106C13.0272 23.5309 13.0202 23.4443 12.982 23.3698C12.6628 22.7634 11.8229 22.3555 10.899 22.3555Z" fill="currentColor"/>
<path d="M19.2622 22.3555C18.3299 22.3555 17.4928 22.7635 17.182 23.3726C17.1628 23.4092 17.1511 23.4493 17.1476 23.4905C17.1441 23.5317 17.1489 23.5731 17.1617 23.6124C17.1744 23.6517 17.195 23.6881 17.222 23.7194C17.2491 23.7507 17.2821 23.7762 17.3192 23.7946C17.3636 23.8165 17.4125 23.828 17.462 23.8281C17.5199 23.8283 17.5767 23.8124 17.6261 23.7823C17.6755 23.7523 17.7156 23.7091 17.742 23.6577C17.9464 23.2609 18.5819 22.9814 19.2622 22.9814C19.9426 22.9814 20.5781 23.2609 20.7853 23.6577C20.804 23.6944 20.8298 23.7272 20.8611 23.754C20.8925 23.7807 20.9289 23.8011 20.9682 23.8138C21.0075 23.8265 21.0489 23.8314 21.09 23.8281C21.1312 23.8248 21.1713 23.8134 21.2081 23.7946C21.2821 23.7558 21.338 23.6896 21.3636 23.6102C21.3893 23.5308 21.3827 23.4445 21.3453 23.3698C21.0289 22.7634 20.1918 22.3555 19.2622 22.3555Z" fill="currentColor"/>
<path d="M39.7141 18.0632C41.7607 18.0632 43.9781 19.181 44.3589 21.8106H41.8755C41.5227 20.8102 40.7724 20.3575 39.7141 20.3575C38.233 20.3575 37.2587 21.4752 37.2587 23.1044C37.2587 24.5575 38.219 25.8234 39.7141 25.8401C40.7892 25.8401 41.6487 25.3036 41.9175 24.2473H44.4009C44.0341 27.0418 41.8195 28.1344 39.7141 28.1344C37.1943 28.1484 34.6605 26.4577 34.6465 23.1044C34.6325 19.7511 37.2027 18.0632 39.7141 18.0632Z" fill="currentColor"/>
<path d="M48.354 27.7655L49.8995 24.5854L46.5762 18.5439V18.1638H49.3983L51.2629 21.7966H51.3329L53.0268 18.1638H55.7789V18.5439L51.0782 28.045H48.354V27.7655Z" fill="currentColor"/>
<path d="M58.8872 28.0449H56.415V27.6789L60.861 18.0576H61.9389L66.4185 27.6705V28.0449H63.9464L61.407 22.2688L58.8872 28.0449Z" fill="currentColor"/>
<path d="M67.5693 20.4302V18.175H74.9075V20.4302H72.4941V28.045H69.9967V20.4302H67.5693Z" fill="currentColor"/>
<path d="M83.0098 26.7958H79.1153L78.5358 28.0449H76.0664V27.6789L80.5124 18.0576H81.5987L86.0587 27.6789V28.0449H83.5893L83.0098 26.7958ZM81.05 22.0453L79.9301 24.6385H82.1895L81.05 22.0453Z" fill="currentColor"/>
<path d="M96.9996 28.045H94.4154V24.0769H91.3665V28.045H88.7852V18.175H91.3665V21.7519H94.4154V18.175H96.9996V28.045Z" fill="currentColor"/>
</g>
<defs>
<clipPath id="clip0_3607_1093">
<rect width="97" height="41" fill="none"/>
</clipPath>
</defs>
</svg>
